<?xml version="1.0" encoding="UTF-8" standalone="no"?>
<!-- Created with Inkscape (http://www.inkscape.org/) -->

<svg
   version="1.1"
   id="svg1"
   width="20"
   height="20"
   viewBox="0 0 20 20"
   sodipodi:docname="buttonlogo.svg"
   inkscape:version="1.4.4 (dcaf3e7d9e, 2026-05-05)"
   xmlns:inkscape="http://www.inkscape.org/namespaces/inkscape"
   xmlns:sodipodi="http://sodipodi.sourceforge.net/DTD/sodipodi-0.dtd"
   xmlns="http://www.w3.org/2000/svg"
   xmlns:svg="http://www.w3.org/2000/svg">
  <defs
     id="defs1">
    <inkscape:path-effect
       effect="bend_path"
       id="path-effect93"
       is_visible="true"
       lpeversion="1"
       bendpath="M 109.51392,297.97462 76.307891,297.31489"
       prop_scale="-2.4037363"
       scale_y_rel="false"
       vertical="false"
       hide_knot="false" />
    <inkscape:path-effect
       effect="bend_path"
       id="path-effect91"
       is_visible="true"
       lpeversion="1"
       bendpath="M 109.51392,297.97462 76.307891,297.31489"
       prop_scale="-2.4037363"
       scale_y_rel="false"
       vertical="false"
       hide_knot="false" />
    <inkscape:path-effect
       effect="bend_path"
       id="path-effect90"
       is_visible="true"
       lpeversion="1"
       bendpath="m 330.27788,268.38965 c 9.32989,31.25511 8.86339,31.25511 8.86339,31.25511"
       prop_scale="0.783195"
       scale_y_rel="false"
       vertical="false"
       hide_knot="false" />
    <inkscape:path-effect
       effect="bend_path"
       id="path-effect88"
       is_visible="true"
       lpeversion="1"
       bendpath="m 330.27788,268.38965 c 9.32989,31.25511 8.86339,31.25511 8.86339,31.25511"
       prop_scale="0.783195"
       scale_y_rel="false"
       vertical="false"
       hide_knot="false" />
    <inkscape:path-effect
       effect="bend_path"
       id="path-effect87"
       is_visible="true"
       lpeversion="1"
       bendpath="m 277.71954,262.79172 48.35989,5.13144"
       prop_scale="0.783195"
       scale_y_rel="false"
       vertical="false"
       hide_knot="false" />
    <inkscape:path-effect
       effect="bend_path"
       id="path-effect85"
       is_visible="true"
       lpeversion="1"
       bendpath="m 277.71954,262.79172 48.35989,5.13144"
       prop_scale="0.783195"
       scale_y_rel="false"
       vertical="false"
       hide_knot="false" />
    <inkscape:path-effect
       effect="bend_path"
       id="path-effect84"
       is_visible="true"
       lpeversion="1"
       bendpath="m 259.37077,264.19121 42.29547,-0.1555"
       prop_scale="0.783195"
       scale_y_rel="false"
       vertical="false"
       hide_knot="false" />
    <inkscape:path-effect
       effect="bend_path"
       id="path-effect82"
       is_visible="true"
       lpeversion="1"
       bendpath="m 259.37077,264.19121 42.29547,-0.1555"
       prop_scale="0.783195"
       scale_y_rel="false"
       vertical="false"
       hide_knot="false" />
    <inkscape:path-effect
       effect="bend_path"
       id="path-effect81"
       is_visible="true"
       lpeversion="1"
       bendpath="m 243.35447,243.66546 24.72419,21.61423"
       prop_scale="0.783195"
       scale_y_rel="false"
       vertical="false"
       hide_knot="false" />
    <inkscape:path-effect
       effect="bend_path"
       id="path-effect79"
       is_visible="true"
       lpeversion="1"
       bendpath="m 243.35447,243.66546 24.72419,21.61423"
       prop_scale="0.783195"
       scale_y_rel="false"
       vertical="false"
       hide_knot="false" />
    <inkscape:path-effect
       effect="bend_path"
       id="path-effect78"
       is_visible="true"
       lpeversion="1"
       bendpath="m 203.85796,224.07271 51.15886,43.22846"
       prop_scale="0.783195"
       scale_y_rel="false"
       vertical="false"
       hide_knot="false" />
    <inkscape:path-effect
       effect="bend_path"
       id="path-effect76"
       is_visible="true"
       lpeversion="1"
       bendpath="m 203.85796,224.07271 51.15886,43.22846"
       prop_scale="0.783195"
       scale_y_rel="false"
       vertical="false"
       hide_knot="false" />
    <inkscape:path-effect
       effect="bend_path"
       id="path-effect75"
       is_visible="true"
       lpeversion="1"
       bendpath="m 163.58396,223.60621 38.56352,-0.31099"
       prop_scale="0.783195"
       scale_y_rel="false"
       vertical="false"
       hide_knot="false" />
    <inkscape:path-effect
       effect="bend_path"
       id="path-effect73"
       is_visible="true"
       lpeversion="1"
       bendpath="m 163.58396,223.60621 38.56352,-0.31099"
       prop_scale="0.783195"
       scale_y_rel="false"
       vertical="false"
       hide_knot="false" />
    <inkscape:path-effect
       effect="bend_path"
       id="path-effect72"
       is_visible="true"
       lpeversion="1"
       bendpath="m 122.84347,250.66287 39.8075,-28.76714"
       prop_scale="0.783195"
       scale_y_rel="false"
       vertical="false"
       hide_knot="false" />
    <inkscape:path-effect
       effect="bend_path"
       id="path-effect70"
       is_visible="true"
       lpeversion="1"
       bendpath="m 122.84347,250.66287 39.8075,-28.76714"
       prop_scale="0.783195"
       scale_y_rel="false"
       vertical="false"
       hide_knot="false" />
    <inkscape:path-effect
       effect="bend_path"
       id="path-effect69"
       is_visible="true"
       lpeversion="1"
       bendpath="m 259.99276,261.23674 7.7749,6.53092 10.26287,-3.10996 46.96042,-2.17697 13.06183,36.07555"
       prop_scale="0.79959998"
       scale_y_rel="false"
       vertical="false"
       hide_knot="false" />
    <inkscape:path-effect
       effect="bend_path"
       id="path-effect67"
       is_visible="true"
       lpeversion="1"
       bendpath="m 259.99276,261.23674 7.7749,6.53092 10.26287,-3.10996 46.96042,-2.17697 13.06183,36.07555"
       prop_scale="0.79959998"
       scale_y_rel="false"
       vertical="false"
       hide_knot="false" />
    <inkscape:path-effect
       effect="bend_path"
       id="path-effect66"
       is_visible="true"
       lpeversion="1"
       bendpath="m 122.84347,250.04088 126.26442,-2.17697"
       prop_scale="0.783195"
       scale_y_rel="false"
       vertical="false"
       hide_knot="false" />
    <inkscape:path-effect
       effect="bend_path"
       id="path-effect64"
       is_visible="true"
       lpeversion="1"
       bendpath="m 122.84347,250.04088 126.26442,-2.17697"
       prop_scale="0.79959998"
       scale_y_rel="false"
       vertical="false"
       hide_knot="false" />
    <inkscape:path-effect
       effect="bend_path"
       id="path-effect63"
       is_visible="true"
       lpeversion="1"
       bendpath="m 69.041139,260.61475 55.979301,-2.48797"
       prop_scale="0.79959998"
       scale_y_rel="false"
       vertical="false"
       hide_knot="false" />
    <inkscape:path-effect
       effect="bend_path"
       id="path-effect61"
       is_visible="true"
       lpeversion="1"
       bendpath="m 69.041139,260.61475 55.979301,-2.48797"
       prop_scale="0.79959998"
       scale_y_rel="false"
       vertical="false"
       hide_knot="false" />
    <inkscape:path-effect
       effect="bend_path"
       id="path-effect54"
       is_visible="true"
       lpeversion="1"
       bendpath="m 140.74078,262.1297 108.19447,-0.87963"
       prop_scale="0.12653477"
       scale_y_rel="false"
       vertical="false"
       hide_knot="false" />
    <inkscape:path-effect
       effect="bend_path"
       id="path-effect52"
       is_visible="true"
       lpeversion="1"
       bendpath="m 140.74078,262.1297 108.19447,-0.87963"
       prop_scale="0.12653477"
       scale_y_rel="false"
       vertical="false"
       hide_knot="false" />
    <inkscape:path-effect
       effect="bend_path"
       id="path-effect51"
       is_visible="true"
       lpeversion="1"
       bendpath="m 139.86115,262.1297 108.19447,-0.87963"
       prop_scale="0.12653477"
       scale_y_rel="false"
       vertical="false"
       hide_knot="false" />
    <inkscape:path-effect
       effect="bend_path"
       id="path-effect49"
       is_visible="true"
       lpeversion="1"
       bendpath="m 139.86115,262.1297 108.19447,-0.87963"
       prop_scale="0.12653477"
       scale_y_rel="false"
       vertical="false"
       hide_knot="false" />
    <inkscape:path-effect
       effect="bend_path"
       id="path-effect48"
       is_visible="true"
       lpeversion="1"
       bendpath="m 302.59267,274.44452 14.07408,7.03704"
       prop_scale="0.12653477"
       scale_y_rel="false"
       vertical="false"
       hide_knot="false" />
    <inkscape:path-effect
       effect="bend_path"
       id="path-effect46"
       is_visible="true"
       lpeversion="1"
       bendpath="m 302.59267,274.44452 14.07408,7.03704"
       prop_scale="0.12653477"
       scale_y_rel="false"
       vertical="false"
       hide_knot="false" />
    <inkscape:path-effect
       effect="bend_path"
       id="path-effect45"
       is_visible="true"
       lpeversion="1"
       bendpath="m 159.21301,272.68526 19.35185,7.03704"
       prop_scale="0.12653477"
       scale_y_rel="false"
       vertical="false"
       hide_knot="false" />
    <inkscape:path-effect
       effect="bend_path"
       id="path-effect43"
       is_visible="true"
       lpeversion="1"
       bendpath="m 159.21301,272.68526 19.35185,7.03704"
       prop_scale="0.12653477"
       scale_y_rel="false"
       vertical="false"
       hide_knot="false" />
    <inkscape:path-effect
       effect="bend_path"
       id="path-effect42"
       is_visible="true"
       lpeversion="1"
       bendpath="M 109.95373,297.31489 H 80.925948"
       prop_scale="0.12653477"
       scale_y_rel="false"
       vertical="false"
       hide_knot="false" />
    <inkscape:path-effect
       effect="bend_path"
       id="path-effect40"
       is_visible="true"
       lpeversion="1"
       bendpath="M 109.95373,297.31489 H 80.925948"
       prop_scale="0.12653477"
       scale_y_rel="false"
       vertical="false"
       hide_knot="false" />
    <inkscape:path-effect
       effect="bend_path"
       id="path-effect39"
       is_visible="true"
       lpeversion="1"
       bendpath="m 306.11119,297.31489 h 33.42594"
       prop_scale="0.12653477"
       scale_y_rel="false"
       vertical="false"
       hide_knot="false" />
    <inkscape:path-effect
       effect="bend_path"
       id="path-effect37"
       is_visible="true"
       lpeversion="1"
       bendpath="m 306.11119,297.31489 h 33.42594"
       prop_scale="0.12653477"
       scale_y_rel="false"
       vertical="false"
       hide_knot="false" />
    <inkscape:path-effect
       effect="bend_path"
       id="path-effect36"
       is_visible="true"
       lpeversion="1"
       bendpath="m 167.12967,297.31489 h 81.80558"
       prop_scale="0.12653477"
       scale_y_rel="false"
       vertical="false"
       hide_knot="false" />
    <inkscape:path-effect
       effect="bend_path"
       id="path-effect34"
       is_visible="true"
       lpeversion="1"
       bendpath="m 167.12967,297.31489 h 81.80558"
       prop_scale="0.12653477"
       scale_y_rel="false"
       vertical="false"
       hide_knot="false" />
  </defs>
  <sodipodi:namedview
     id="namedview1"
     pagecolor="#ffffff"
     bordercolor="#000000"
     borderopacity="0.25"
     inkscape:showpageshadow="2"
     inkscape:pageopacity="0.0"
     inkscape:pagecheckerboard="true"
     inkscape:deskcolor="#d1d1d1"
     inkscape:zoom="39.515322"
     inkscape:cx="10.287149"
     inkscape:cy="10.211229"
     inkscape:window-width="1920"
     inkscape:window-height="1117"
     inkscape:window-x="0"
     inkscape:window-y="0"
     inkscape:window-maximized="1"
     inkscape:current-layer="g1"
     showguides="false" />
  <g
     inkscape:groupmode="layer"
     inkscape:label="Image"
     id="g1"
     transform="matrix(0.042502,0,0,0.042502,1.5378399,0.2964208)">
    <path
       style="fill:#ffffff;fill-opacity:1;stroke-width:9.12701;stroke-dasharray:none"
       d="M 194.8897,-0.98067159 28.405788,88.293306"
       id="path5" />
    <path
       style="opacity:1;fill:none;stroke:#ffffff;stroke-width:9.12701;stroke-dasharray:none;stroke-opacity:1"
       d="M 196.9482,2.232629 28.088264,81.564123 26.365203,236.81501 C 45.182459,343.34874 112.7152,406.63761 197.80973,454.33685 291.9125,415.13006 368.78735,360.57119 371.83887,240.22712 l -2.5846,-161.222077 v 0 z"
       id="path6"
       sodipodi:nodetypes="cccccccc" />
    <path
       style="fill:none;stroke:#ffffff;stroke-width:9.12701;stroke-dasharray:none;stroke-opacity:1"
       d="M 198.2083,35.112215 55.391971,103.78902 53.934662,238.18878 c 15.91503,92.22565 73.032068,147.01445 145.002278,188.30739 79.58914,-33.94108 144.60742,-81.17236 147.18829,-185.35353 l -2.18597,-139.569 v 0 z"
       id="path6-8"
       sodipodi:nodetypes="cccccccc" />
    <ellipse
       style="fill:none;stroke:#ffffff;stroke-width:9.12701;stroke-dasharray:none;stroke-opacity:1"
       id="path7"
       cx="195.54164"
       cy="189.23717"
       rx="7.7706485"
       ry="8.197176" />
    <rect
       style="fill:none;stroke:#ffffff;stroke-width:9.12701;stroke-dasharray:none;stroke-opacity:1"
       id="rect7"
       width="0.85305727"
       height="94.689354"
       x="195.27541"
       y="75.587494" />
    <path
       style="fill:none;stroke:#ffffff;stroke-width:9.12701;stroke-dasharray:none;stroke-opacity:1"
       d="M 86.719185,136.19906 C 101.53052,99.811617 153.39866,81.951484 183.68289,81.786857"
       id="path2-1-0"
       inkscape:transform-center-x="-6.1517762"
       inkscape:transform-center-y="73.338193"
       sodipodi:nodetypes="cc" />
    <path
       style="fill:none;stroke:#ffffff;stroke-width:9.12701;stroke-dasharray:none;stroke-opacity:1"
       d="M 303.7765,135.91909 C 288.96517,99.531657 237.09702,81.671514 206.8128,81.506889"
       id="path2-1-0-6"
       inkscape:transform-center-x="6.1517781"
       inkscape:transform-center-y="73.338193"
       sodipodi:nodetypes="cc" />
    <path
       style="fill:none;stroke:#ffffff;stroke-width:9.12701;stroke-dasharray:none;stroke-opacity:1"
       d="m 112.31818,160.51249 c 12.87432,-20.34882 34.32228,-39.88052 71.70925,-40.20757"
       id="path12"
       sodipodi:nodetypes="cc" />
    <path
       style="fill:none;stroke:#ffffff;stroke-width:9.12701;stroke-dasharray:none;stroke-opacity:1"
       d="M 278.94091,160.61765 C 266.06659,140.26883 244.61863,120.73712 207.23166,120.41007"
       id="path12-1"
       sodipodi:nodetypes="cc" />
    <path
       style="fill:none;stroke:#ffffff;stroke-width:9.12701;stroke-dasharray:none;stroke-opacity:1"
       d="m 141.74878,176.54075 c 8.00752,-11.42008 19.2601,-20.18268 42.13652,-19.42613"
       id="path18-3"
       sodipodi:nodetypes="cc" />
    <path
       style="fill:none;stroke:#ffffff;stroke-width:9.12701;stroke-dasharray:none;stroke-opacity:1"
       d="m 240.82919,285.52207 c 23.7087,-20.97118 41.27407,-12.79693 56.87103,-0.65361"
       id="path30-0"
       sodipodi:nodetypes="cc" />
    <path
       style="fill:none;stroke:#ffffff;stroke-width:9.41132;stroke-dasharray:none;stroke-opacity:1"
       d="m 166.98876,298.50984 c 37.64432,-3.95038 60.41485,-2.29104 81.80558,-0.1113"
       id="path35"
       sodipodi:nodetypes="cc"
       inkscape:path-effect="#path-effect36"
       inkscape:original-d="m 109.0741,298.19452 c 26.71532,-31.21977 42.87505,-18.10603 58.05557,-0.87963"
       transform="matrix(0.96979115,0,0,0.96979115,0.65846981,-4.5998869)" />
    <path
       style="fill:none;stroke:#ffffff;stroke-width:9.41132;stroke-dasharray:none;stroke-opacity:1"
       d="m 306.05361,298.50984 c 15.38155,-3.95038 24.68564,-2.29104 33.42594,-0.1113"
       id="path38"
       sodipodi:nodetypes="cc"
       inkscape:path-effect="#path-effect39"
       inkscape:original-d="m 109.0741,298.19452 c 26.71532,-31.21977 42.87505,-18.10603 58.05557,-0.87963"
       transform="matrix(0.96979115,0,0,0.96979115,-0.21479092,-4.9014882)" />
    <path
       style="fill:none;stroke:#ffffff;stroke-width:9.41132;stroke-dasharray:none;stroke-opacity:1"
       d="m 158.77131,273.79615 c 10.25512,-0.47433 15.07463,3.04387 19.38989,6.93244"
       id="path44"
       sodipodi:nodetypes="cc"
       inkscape:path-effect="#path-effect45"
       inkscape:original-d="m 109.0741,298.19452 c 26.71532,-31.21977 42.87505,-18.10603 58.05557,-0.87963"
       transform="matrix(-0.96979115,0,0,-0.96979115,327.98982,532.89478)" />
    <path
       style="fill:none;stroke:#ffffff;stroke-width:9.41132;stroke-dasharray:none;stroke-opacity:1"
       d="m 302.03403,275.5012 c 8.24311,-0.29511 11.41854,3.1478 14.12385,6.93749"
       id="path47"
       sodipodi:nodetypes="cc"
       inkscape:path-effect="#path-effect48"
       inkscape:original-d="m 109.0741,298.19452 c 26.71532,-31.21977 42.87505,-18.10603 58.05557,-0.87963"
       transform="matrix(0.96979115,0,0,0.96979115,0.65846981,-4.5998869)" />
    <path
       style="fill:none;stroke:#ffffff;stroke-width:9.41132;stroke-dasharray:none;stroke-opacity:1"
       d="m 139.6845,263.32613 c 49.75553,-4.35503 79.88488,-2.94059 108.19357,-0.99093"
       id="path50"
       sodipodi:nodetypes="cc"
       inkscape:path-effect="#path-effect51"
       inkscape:original-d="m 109.0741,298.19452 c 26.71532,-31.21977 42.87505,-18.10603 58.05557,-0.87963"
       transform="matrix(0.96979115,0,0,0.96979115,0.65846981,-4.5998869)" />
    <path
       style="fill:none;stroke:#ffffff;stroke-width:9.41132;stroke-dasharray:none;stroke-opacity:1"
       d="m 139.6845,263.32613 c 49.75553,-4.35503 79.88488,-2.94059 108.19357,-0.99093"
       id="path49"
       sodipodi:nodetypes="cc"
       inkscape:path-effect="#path-effect49"
       inkscape:original-d="m 109.0741,298.19452 c 26.71532,-31.21977 42.87505,-18.10603 58.05557,-0.87963"
       transform="matrix(0.96979115,0,0,0.96979115,0.65846981,-4.5998869)" />
    <path
       style="fill:none;stroke:#ffffff;stroke-width:9.41132;stroke-dasharray:none;stroke-opacity:1"
       d="m 140.56413,263.32613 c 49.75553,-4.35503 79.88488,-2.94059 108.19357,-0.99093"
       id="path53"
       sodipodi:nodetypes="cc"
       inkscape:path-effect="#path-effect54"
       inkscape:original-d="m 109.0741,298.19452 c 26.71532,-31.21977 42.87505,-18.10603 58.05557,-0.87963"
       transform="matrix(0.96979115,0,0,0.96979115,-0.40795047,-4.6000687)" />
    <path
       style="fill:none;stroke:#ffffff;stroke-width:9.12701;stroke-dasharray:none;stroke-opacity:1"
       d="m 168.92401,229.56432 10.87649,19.1938"
       id="path54"
       sodipodi:nodetypes="cc" />
    <path
       style="fill:none;stroke:#ffffff;stroke-width:9.12701;stroke-dasharray:none;stroke-opacity:1"
       d="m 106.71563,285.24482 c 26.04495,-20.3471 41.79917,-11.80038 56.59877,-0.57328"
       id="path30-8"
       sodipodi:nodetypes="cc" />
    <path
       style="fill:none;stroke:#ffffff;stroke-width:9.12701;stroke-dasharray:none;stroke-opacity:1"
       d="m 137.00726,250.51536 c 43.6566,-40.59867 75.34674,-25.76351 103.50066,-0.74203"
       id="path57"
       sodipodi:nodetypes="cc" />
    <path
       style="fill:none;stroke:#ffffff;stroke-width:9.12701;stroke-dasharray:none;stroke-opacity:1"
       d="m 141.74878,176.54075 c 8.00752,-11.42008 19.2601,-20.18268 42.13652,-19.42613"
       id="path18-3-1"
       sodipodi:nodetypes="cc" />
    <path
       style="fill:none;stroke:#ffffff;stroke-width:9.12701;stroke-dasharray:none;stroke-opacity:1"
       d="m 141.74878,176.54075 c 8.00752,-11.42008 19.2601,-20.18268 42.13652,-19.42613"
       id="path58"
       sodipodi:nodetypes="cc" />
    <path
       style="fill:none;stroke:#ffffff;stroke-width:9.41132;stroke-dasharray:none;stroke-opacity:1"
       d="m 69.268716,268.63983 c 10.220102,-9.87946 24.848608,-17.76157 55.268134,-18.48917"
       id="path61"
       sodipodi:nodetypes="cc"
       inkscape:original-d="m 145.48525,186.78314 c 8.25696,-11.77581 19.86005,-20.81136 43.44907,-20.03126"
       inkscape:path-effect="#path-effect61"
       transform="matrix(-0.96979115,0,0,-0.96979115,187.89347,498.21907)" />
    <path
       style="fill:none;stroke:#ffffff;stroke-width:9.12701;stroke-dasharray:none;stroke-opacity:1"
       d="m 141.74878,176.54075 c 8.00752,-11.42008 19.2601,-20.18268 42.13652,-19.42613"
       id="path18-3-40"
       sodipodi:nodetypes="cc" />
    <path
       style="fill:none;stroke:#ffffff;stroke-width:9.12701;stroke-dasharray:none;stroke-opacity:1"
       d="m 141.74878,176.54075 c 8.00752,-11.42008 19.2601,-20.18268 42.13652,-19.42613"
       id="path18-3-8"
       sodipodi:nodetypes="cc" />
    <path
       style="fill:none;stroke:#ffffff;stroke-width:9.12701;stroke-dasharray:none;stroke-opacity:1"
       d="m 141.74878,176.54075 c 8.00752,-11.42008 19.2601,-20.18268 42.13652,-19.42613"
       id="path18-3-9"
       sodipodi:nodetypes="cc" />
    <path
       style="fill:none;stroke:#ffffff;stroke-width:9.12701;stroke-linejoin:round;stroke-dasharray:none;stroke-opacity:1"
       d="m 118.75367,240.45873 c 11.09598,-8.90476 34.72945,-23.30753 43.51891,-25.22473"
       id="path69"
       sodipodi:nodetypes="cc" />
    <path
       style="fill:none;stroke:#ffffff;stroke-width:9.12701;stroke-dasharray:none;stroke-opacity:1"
       d="m 141.74878,176.54075 c 8.00752,-11.42008 19.2601,-20.18268 42.13652,-19.42613"
       id="path18-3-7"
       sodipodi:nodetypes="cc" />
    <path
       style="fill:none;stroke:#ffffff;stroke-width:9.12701;stroke-dasharray:none;stroke-opacity:1"
       d="M 249.7819,176.26303 C 241.77436,164.84296 230.5218,156.08036 207.64537,156.8369"
       id="path18-3-7-8"
       sodipodi:nodetypes="cc" />
    <path
       style="fill:none;stroke:#ffffff;stroke-width:9.12701;stroke-linejoin:round;stroke-dasharray:none;stroke-opacity:1"
       d="m 159.52288,215.99492 c 12.39445,-3.41599 33.51341,-6.94166 48.4247,-4.05609"
       id="path72"
       sodipodi:nodetypes="cc" />
    <path
       style="fill:none;stroke:#ffffff;stroke-width:9.12701;stroke-linejoin:round;stroke-dasharray:none;stroke-opacity:1"
       d="m 207.56668,211.85986 c 11.38356,1.57004 26.50044,12.88502 31.69418,18.4991"
       id="path75"
       sodipodi:nodetypes="cc" />
    <path
       style="fill:none;stroke:#ffffff;stroke-width:9.12701;stroke-linejoin:round;stroke-dasharray:none;stroke-opacity:1"
       d="m 238.97235,230.10525 c 2.63703,2.64766 13.34465,12.4019 17.38783,18.71442"
       id="path78"
       sodipodi:nodetypes="cc" />
    <path
       style="fill:none;stroke:#ffffff;stroke-width:9.12701;stroke-linejoin:round;stroke-dasharray:none;stroke-opacity:1"
       d="m 255.39551,248.20575 c 6.83913,-0.57503 47.7059,-2.05636 59.62429,5.72599"
       id="path84"
       sodipodi:nodetypes="cc" />
    <path
       style="fill:none;stroke:#ffffff;stroke-width:9.12701;stroke-linejoin:round;stroke-dasharray:none;stroke-opacity:1"
       d="m 314.61156,253.63016 c 6.15882,4.06841 19.71185,12.13503 13.43511,30.85479"
       id="path87"
       sodipodi:nodetypes="cc" />
    <path
       style="fill:none;stroke:#ffffff;stroke-width:9.12701;stroke-linejoin:round;stroke-dasharray:none;stroke-opacity:1"
       d="m 107.50389,284.7998 c -9.429025,3.83662 -21.007956,4.22583 -28.577417,0.21325"
       id="path90"
       sodipodi:nodetypes="cc" />
    <path
       style="opacity:1;fill:#ffffff;fill-opacity:0;stroke:#ffffff;stroke-width:9.12701;stroke-linejoin:round;stroke-dasharray:none;stroke-opacity:1"
       d="M 183.21273,443.39671 C 97.754756,391.35237 52.2572,334.37306 31.955778,253.96863 l -3.146418,-12.46149 0.18702,-43.50593 c 0.102859,-23.92825 0.434349,-59.63281 0.73664,-79.34344 L 30.282641,82.820245 110.15991,45.342776 C 154.09242,24.730169 191.61949,7.1193467 193.55342,6.2076173 l 3.51625,-1.657691 84.77518,37.7452147 c 46.62635,20.759867 84.91885,37.878664 85.09444,38.041768 0.67814,0.629921 2.76012,141.737601 2.36541,160.317171 -0.43197,20.33433 -1.51285,29.91699 -5.29961,46.98476 -11.32081,51.02539 -41.66494,92.91359 -90.79483,125.33662 -11.89483,7.84992 -25.89847,15.92511 -38.99351,22.48551 -11.50947,5.76604 -35.10618,16.33494 -36.36198,16.28639 -0.54622,-0.0211 -7.13515,-3.77891 -14.64204,-8.35065 z m 26.44478,-17.69526 c 19.69108,-8.6032 42.9786,-21.3524 58.00789,-31.75751 17.63961,-12.21233 36.49335,-30.03404 47.5546,-44.95159 14.34859,-19.3509 24.86669,-43.24304 30.04349,-68.24458 3.21549,-15.5293 4.05097,-26.19668 3.97538,-50.75691 -0.0729,-23.70672 -1.77811,-130.841151 -2.085,-131.000264 -0.0848,-0.04394 -33.63454,-15.331169 -74.55499,-33.971575 L 198.19804,31.127372 125.4465,66.097354 52.694963,101.06734 l -0.53265,3.25491 c -0.292956,1.79019 -0.797502,33.00527 -1.12121,69.36683 -0.583061,65.4939 -0.571466,66.19168 1.240339,74.64252 15.914638,74.23089 58.461198,129.45768 135.196568,175.48944 6.09936,3.65886 11.47362,6.50122 11.94281,6.31634 0.46918,-0.18489 5.07568,-2.18106 10.23669,-4.43593 z"
       id="path1" />
    <path
       style="opacity:1;fill:#ffffff;fill-opacity:0;stroke:#ffffff;stroke-width:9.12701;stroke-linejoin:round;stroke-dasharray:none;stroke-opacity:1"
       d="m 193.44942,419.17867 c -11.31324,-6.9794 -29.73449,-19.39026 -37.42268,-25.2126 -52.518,-39.77232 -84.133644,-87.61929 -96.454461,-145.97376 l -2.218927,-10.50941 0.811659,-65.67674 c 0.446412,-36.12221 0.933778,-65.76354 1.083035,-65.86963 1.609886,-1.14429 138.442334,-66.452669 139.176444,-66.42713 0.82634,0.02874 141.20503,63.82542 141.84073,64.46112 0.11281,0.1128 0.68736,32.10308 1.27679,71.08952 1.164,76.98963 0.98559,82.87557 -3.13453,103.41633 -12.12001,60.42403 -52.19141,104.33913 -125.889,137.9644 -6.61549,3.01839 -12.65267,5.46127 -13.41597,5.42862 -0.76329,-0.0327 -3.30719,-1.24347 -5.65309,-2.69072 z M 101.02575,288.4718 c 3.89899,-0.82638 7.268,-2.28879 10.75306,-4.66769 17.50634,-11.94972 29.15758,-12.02947 46.79287,-0.3203 l 4.49579,2.98503 13.80432,-1.05987 c 14.92537,-1.14597 54.55092,-0.64536 61.32411,0.77471 3.57883,0.75034 3.98723,0.63617 7.02444,-1.96355 6.75394,-5.78113 16.74295,-9.8386 24.27457,-9.86016 5.67126,-0.0163 14.23509,3.11645 21.13473,7.73121 6.05613,4.05058 6.58057,4.23829 9.63447,3.44817 8.11036,-2.09836 17.72146,-1.98556 26.78641,0.31435 2.74399,0.69619 3.25281,-0.36515 3.91487,-8.1658 0.83951,-9.89151 -2.84056,-16.84571 -12.28934,-23.22304 -9.24588,-6.24038 -20.50491,-8.22444 -46.823,-8.25113 l -14.57961,-0.0147 -10.58557,-10.74458 C 232.06308,220.61 222.10561,213.85312 210.33723,210.78784 c -9.56122,-2.49038 -32.50529,-1.22067 -47.40753,2.62348 -9.26352,2.38961 -24.00561,10.47058 -41.1371,22.54958 -11.83995,8.34807 -16.6645,10.76425 -26.450516,13.24667 -6.026863,1.52885 -22.580725,3.78862 -27.931883,3.81299 -0.351886,0.002 -0.639793,0.78137 -0.639793,1.7328 0,1.61505 0.382178,1.69753 5.758136,1.24268 17.262859,-1.46059 28.660726,-3.93841 36.883766,-8.01829 2.86015,-1.41906 10.0787,-5.99766 16.04126,-10.17466 28.59455,-20.03164 40.36281,-24.2506 67.99585,-24.3767 13.92762,-0.0635 15.77798,0.10326 19.90486,1.79445 10.28236,4.21367 16.55609,8.82385 29.40166,21.60548 l 12.62508,12.56222 20.64416,0.4873 c 27.73223,0.65461 33.03597,1.78736 42.93666,9.17028 5.53773,4.12947 8.84983,10.33194 8.83103,16.53761 -0.0195,6.42975 -0.29013,6.62165 -7.85479,5.56952 -5.43187,-0.75551 -16.89536,-0.18765 -21.89064,1.08438 -0.28877,0.0735 -2.96426,-1.46656 -5.94551,-3.42243 -16.2714,-10.67495 -31.42188,-10.28221 -47.2101,1.2238 l -4.00631,2.91969 -10.06913,-0.88336 c -13.18743,-1.15691 -41.49183,-1.14218 -55.48269,0.0289 l -11.10903,0.92986 -5.0455,-3.44403 c -16.57366,-11.31308 -30.73632,-10.9084 -49.7099,1.42039 -8.44456,5.48716 -17.364073,6.45477 -28.71904,3.1155 -2.493225,-0.73322 -3.422677,1.8217 -1.112497,3.05808 4.618508,2.47174 13.327997,2.99618 21.388017,1.28785 z M 307.6737,269.57275 c 3.58439,-1.37545 -4.25838,-7.53959 -10.7911,-8.48137 -3.74013,-0.53922 -4.05201,-0.4454 -4.05201,1.21879 0,1.36057 0.53002,1.80298 2.16004,1.80298 2.95814,0 7.31594,1.94867 9.27518,4.14754 1.84448,2.07011 1.6388,1.99092 3.40789,1.31206 z m -133.41807,-2.04736 c 0,-1.36904 -0.56872,-1.70612 -2.87845,-1.70612 -3.83054,0 -9.28675,-1.99132 -12.80129,-4.67199 -2.53295,-1.93197 -2.98022,-2.03005 -3.94672,-0.86548 -0.59952,0.72238 -0.93937,1.43017 -0.75522,1.57286 6.6881,5.18247 11.52496,7.19291 17.60923,7.31926 2.22293,0.0462 2.77245,-0.28059 2.77245,-1.64853 z m -6.39794,-17.1625 c 17.06859,-0.92274 49.47188,-0.60441 66.32521,0.65154 7.08823,0.52827 7.46425,0.47007 7.46425,-1.15524 0,-3.08772 -15.98956,-14.87728 -27.60719,-20.35558 -8.70483,-4.10477 -14.95234,-5.48415 -24.83894,-5.48415 -16.32614,0 -29.51415,5.54388 -47.36158,19.90955 -3.51886,2.83238 -6.50293,5.21463 -6.63126,5.29388 -0.12835,0.0792 0.0287,0.82704 0.34902,1.66175 0.51655,1.34608 1.36264,1.45712 7.48433,0.98217 3.79608,-0.29451 14.96335,-0.97128 24.81616,-1.50392 z m 32.76048,-51.30793 c 7.44735,-3.82734 7.17527,-16.19556 -0.43574,-19.80722 -5.69478,-2.70236 -11.58722,-0.51245 -14.13817,5.25438 -2.15185,4.86461 -1.37511,9.14396 2.33407,12.8593 2.28169,2.28549 3.41958,2.77023 6.47863,2.75986 2.04093,-0.007 4.63348,-0.48676 5.76121,-1.06632 z m -41.36249,-35.94207 c 5.20952,-2.48884 15.25765,-4.69691 21.61114,-4.74908 2.7843,-0.0229 3.6255,-0.35543 3.6255,-1.43339 0,-1.24027 -0.96806,-1.34672 -8.31733,-0.91466 -13.82497,0.81274 -22.09414,4.53191 -30.82291,13.86299 -4.20326,4.49331 -5.10001,5.91123 -4.3273,6.84226 0.79177,0.95406 2.12012,0.0137 7.07933,-5.01127 3.98418,-4.03708 7.85774,-7.02324 11.15157,-8.59685 z m 91.51894,12.62423 c 0.45652,-1.36956 -7.91445,-10.16976 -12.43,-13.06739 -5.7582,-3.69502 -12.3584,-5.87483 -20.57003,-6.79355 -7.5943,-0.84964 -10.24974,-0.51861 -10.24974,1.27777 0,0.87005 1.30893,1.1801 4.9819,1.1801 6.38233,0 17.22002,2.76968 22.24243,5.68427 2.15175,1.2487 6.21552,4.69407 9.03061,7.65636 4.84535,5.09875 6.3568,5.97655 6.99483,4.06244 z m -53.48646,-52.80495 c 0,-48.482083 -0.0198,-49.050788 -1.70611,-49.050788 -1.68633,0 -1.70612,0.568705 -1.70612,49.050788 0,48.48209 0.0198,49.0508 1.70612,49.0508 1.68634,0 1.70611,-0.56871 1.70611,-49.0508 z m -78.14798,30.9334 c 14.13605,-18.84994 33.99086,-29.67042 58.3144,-31.78013 5.51848,-0.47865 7.03774,-0.89526 7.03774,-1.92988 0,-1.13456 -1.10576,-1.24347 -7.89079,-0.77719 -14.38429,0.98852 -27.49107,5.2481 -39.20445,12.74105 -8.44951,5.40509 -21.55825,18.89508 -25.37192,26.10986 -0.8738,1.65304 -0.85987,2.15892 0.0754,2.73691 0.63101,0.38998 1.35924,0.43713 1.61831,0.10477 0.25907,-0.33234 2.69869,-3.57477 5.42138,-7.20539 z m 160.58247,6.61047 c 0.68715,-1.79068 -6.97938,-11.83971 -14.40571,-18.88254 -9.83966,-9.33156 -18.71677,-14.63432 -30.95595,-18.4917 -11.53812,-3.63643 -27.68919,-5.26773 -27.68919,-2.7967 0,0.87391 1.60518,1.36213 5.75813,1.75133 26.58096,2.4911 45.71503,12.88038 60.39529,32.79299 2.79227,3.7875 5.37681,6.88873 5.74342,6.8916 0.36662,0.003 0.88592,-0.56635 1.15401,-1.26498 z M 91.217243,130.82296 c 4.460696,-8.58519 17.450327,-21.48242 28.302397,-28.10109 15.97087,-9.740614 36.72506,-16.784084 55.37577,-18.793184 7.23382,-0.779244 9.59691,-1.331931 9.59691,-2.24456 0,-0.990899 -1.43287,-1.128817 -7.89079,-0.759512 -26.30244,1.504141 -58.39639,15.121337 -75.57359,32.065236 -10.363371,10.22262 -18.278413,24.01777 -13.780328,24.01777 0.415908,0 2.202242,-2.78309 3.969631,-6.18466 z m 213.184717,3.11477 c -2.05844,-8.20146 -16.25073,-24.08046 -28.84778,-32.27627 -17.71001,-11.522357 -40.97153,-19.524024 -62.27119,-21.420484 -6.35008,-0.565393 -6.61119,-0.517302 -6.61119,1.217697 0,1.590103 0.49259,1.806338 4.11495,1.806338 2.26325,0 7.73348,0.618892 12.15607,1.375314 34.67008,5.92981 65.33467,24.628325 76.86738,46.871875 1.82224,3.5146 3.1472,5.15668 3.92116,4.85968 0.74746,-0.28682 0.98926,-1.16449 0.6706,-2.43415 z"
       id="path2" />
    <path
       style="fill:#ffffff;fill-opacity:0;stroke:#ffffff;stroke-width:9.12701;stroke-linejoin:round;stroke-dasharray:none;stroke-opacity:1"
       d="m 141.34541,248.42346 c 6.50404,-5.75688 14.24149,-11.18308 20.89595,-14.65413 2.46997,-1.28836 6.32599,-3.02732 6.44624,-2.90706 0.13444,0.13443 9.08816,15.97129 9.04827,16.00406 -0.0206,0.0169 -2.07325,0.10949 -4.56147,0.20573 -10.41206,0.40267 -28.29607,1.47981 -31.81893,1.91643 l -0.754,0.0934 z"
       id="path3" />
    <path
       style="fill:#ffffff;fill-opacity:0;stroke:#ffffff;stroke-width:9.12701;stroke-linejoin:round;stroke-dasharray:none;stroke-opacity:1"
       d="m 234.47486,248.04874 c -1.48373,-0.18919 -15.83441,-0.88995 -22.92168,-1.1193 -5.33669,-0.17269 -20.56586,-0.26305 -27.82273,-0.16508 l -4.07161,0.0549 -4.70051,-8.2736 c -2.58527,-4.55048 -4.65501,-8.31786 -4.59942,-8.37195 0.17368,-0.16899 4.2369,-1.4548 6.13312,-1.94083 4.35145,-1.11537 8.07493,-1.56937 12.81804,-1.56287 4.85335,0.007 7.72819,0.35591 12.30548,1.49499 9.97904,2.48331 20.02314,7.92062 31.20051,16.89021 1.36852,1.09819 2.75965,2.23916 3.09142,2.53544 l 0.6032,0.53872 -0.8294,-0.0163 c -0.45618,-0.009 -0.99907,-0.0379 -1.20642,-0.0643 z"
       id="path4" />
    <path
       style="fill:#ffffff;fill-opacity:0;stroke:#ffffff;stroke-width:9.12701;stroke-linejoin:round;stroke-dasharray:none;stroke-opacity:1"
       d="m 193.80424,194.45062 c -1.12833,-0.44693 -2.20159,-1.47561 -2.79305,-2.67703 -0.45932,-0.93301 -0.49471,-1.11302 -0.49471,-2.51608 0,-1.32396 0.05,-1.618 0.40415,-2.37346 0.56847,-1.21285 1.59198,-2.25326 2.71049,-2.75522 0.82416,-0.36985 1.05462,-0.40714 2.14653,-0.34716 1.3727,0.0754 2.13088,0.38519 3.11205,1.27161 0.75591,0.68293 1.60149,2.36286 1.73758,3.45214 0.29199,2.33705 -0.9813,4.76883 -3.0316,5.78986 -1.03441,0.51513 -2.70983,0.58377 -3.79144,0.15534 z"
       id="path8" />
  </g>
</svg>
