<?xml version="1.0" encoding="UTF-8" standalone="no"?>
<!-- Created with Inkscape (http://www.inkscape.org/) -->

<svg
   version="1.1"
   id="svg1"
   width="405.60001"
   height="480.79999"
   viewBox="0 0 405.60001 480.79999"
   sodipodi:docname="logo-vektor.svg"
   inkscape:version="1.4.4 (dcaf3e7, 2026-05-05)"
   xmlns:inkscape="http://www.inkscape.org/namespaces/inkscape"
   xmlns:sodipodi="http://sodipodi.sourceforge.net/DTD/sodipodi-0.dtd"
   xmlns="http://www.w3.org/2000/svg"
   xmlns:svg="http://www.w3.org/2000/svg">
  <defs
     id="defs1">
    <inkscape:path-effect
       effect="bend_path"
       id="path-effect93"
       is_visible="true"
       lpeversion="1"
       bendpath="M 109.51392,297.97462 76.307891,297.31489"
       prop_scale="-2.4037363"
       scale_y_rel="false"
       vertical="false"
       hide_knot="false" />
    <inkscape:path-effect
       effect="bend_path"
       id="path-effect91"
       is_visible="true"
       lpeversion="1"
       bendpath="M 109.51392,297.97462 76.307891,297.31489"
       prop_scale="-2.4037363"
       scale_y_rel="false"
       vertical="false"
       hide_knot="false" />
    <inkscape:path-effect
       effect="bend_path"
       id="path-effect90"
       is_visible="true"
       lpeversion="1"
       bendpath="m 330.27788,268.38965 c 9.32989,31.25511 8.86339,31.25511 8.86339,31.25511"
       prop_scale="0.783195"
       scale_y_rel="false"
       vertical="false"
       hide_knot="false" />
    <inkscape:path-effect
       effect="bend_path"
       id="path-effect88"
       is_visible="true"
       lpeversion="1"
       bendpath="m 330.27788,268.38965 c 9.32989,31.25511 8.86339,31.25511 8.86339,31.25511"
       prop_scale="0.783195"
       scale_y_rel="false"
       vertical="false"
       hide_knot="false" />
    <inkscape:path-effect
       effect="bend_path"
       id="path-effect87"
       is_visible="true"
       lpeversion="1"
       bendpath="m 277.71954,262.79172 48.35989,5.13144"
       prop_scale="0.783195"
       scale_y_rel="false"
       vertical="false"
       hide_knot="false" />
    <inkscape:path-effect
       effect="bend_path"
       id="path-effect85"
       is_visible="true"
       lpeversion="1"
       bendpath="m 277.71954,262.79172 48.35989,5.13144"
       prop_scale="0.783195"
       scale_y_rel="false"
       vertical="false"
       hide_knot="false" />
    <inkscape:path-effect
       effect="bend_path"
       id="path-effect84"
       is_visible="true"
       lpeversion="1"
       bendpath="m 259.37077,264.19121 42.29547,-0.1555"
       prop_scale="0.783195"
       scale_y_rel="false"
       vertical="false"
       hide_knot="false" />
    <inkscape:path-effect
       effect="bend_path"
       id="path-effect82"
       is_visible="true"
       lpeversion="1"
       bendpath="m 259.37077,264.19121 42.29547,-0.1555"
       prop_scale="0.783195"
       scale_y_rel="false"
       vertical="false"
       hide_knot="false" />
    <inkscape:path-effect
       effect="bend_path"
       id="path-effect81"
       is_visible="true"
       lpeversion="1"
       bendpath="m 243.35447,243.66546 24.72419,21.61423"
       prop_scale="0.783195"
       scale_y_rel="false"
       vertical="false"
       hide_knot="false" />
    <inkscape:path-effect
       effect="bend_path"
       id="path-effect79"
       is_visible="true"
       lpeversion="1"
       bendpath="m 243.35447,243.66546 24.72419,21.61423"
       prop_scale="0.783195"
       scale_y_rel="false"
       vertical="false"
       hide_knot="false" />
    <inkscape:path-effect
       effect="bend_path"
       id="path-effect78"
       is_visible="true"
       lpeversion="1"
       bendpath="m 203.85796,224.07271 51.15886,43.22846"
       prop_scale="0.783195"
       scale_y_rel="false"
       vertical="false"
       hide_knot="false" />
    <inkscape:path-effect
       effect="bend_path"
       id="path-effect76"
       is_visible="true"
       lpeversion="1"
       bendpath="m 203.85796,224.07271 51.15886,43.22846"
       prop_scale="0.783195"
       scale_y_rel="false"
       vertical="false"
       hide_knot="false" />
    <inkscape:path-effect
       effect="bend_path"
       id="path-effect75"
       is_visible="true"
       lpeversion="1"
       bendpath="m 163.58396,223.60621 38.56352,-0.31099"
       prop_scale="0.783195"
       scale_y_rel="false"
       vertical="false"
       hide_knot="false" />
    <inkscape:path-effect
       effect="bend_path"
       id="path-effect73"
       is_visible="true"
       lpeversion="1"
       bendpath="m 163.58396,223.60621 38.56352,-0.31099"
       prop_scale="0.783195"
       scale_y_rel="false"
       vertical="false"
       hide_knot="false" />
    <inkscape:path-effect
       effect="bend_path"
       id="path-effect72"
       is_visible="true"
       lpeversion="1"
       bendpath="m 122.84347,250.66287 39.8075,-28.76714"
       prop_scale="0.783195"
       scale_y_rel="false"
       vertical="false"
       hide_knot="false" />
    <inkscape:path-effect
       effect="bend_path"
       id="path-effect70"
       is_visible="true"
       lpeversion="1"
       bendpath="m 122.84347,250.66287 39.8075,-28.76714"
       prop_scale="0.783195"
       scale_y_rel="false"
       vertical="false"
       hide_knot="false" />
    <inkscape:path-effect
       effect="bend_path"
       id="path-effect69"
       is_visible="true"
       lpeversion="1"
       bendpath="m 259.99276,261.23674 7.7749,6.53092 10.26287,-3.10996 46.96042,-2.17697 13.06183,36.07555"
       prop_scale="0.79959998"
       scale_y_rel="false"
       vertical="false"
       hide_knot="false" />
    <inkscape:path-effect
       effect="bend_path"
       id="path-effect67"
       is_visible="true"
       lpeversion="1"
       bendpath="m 259.99276,261.23674 7.7749,6.53092 10.26287,-3.10996 46.96042,-2.17697 13.06183,36.07555"
       prop_scale="0.79959998"
       scale_y_rel="false"
       vertical="false"
       hide_knot="false" />
    <inkscape:path-effect
       effect="bend_path"
       id="path-effect66"
       is_visible="true"
       lpeversion="1"
       bendpath="m 122.84347,250.04088 126.26442,-2.17697"
       prop_scale="0.783195"
       scale_y_rel="false"
       vertical="false"
       hide_knot="false" />
    <inkscape:path-effect
       effect="bend_path"
       id="path-effect64"
       is_visible="true"
       lpeversion="1"
       bendpath="m 122.84347,250.04088 126.26442,-2.17697"
       prop_scale="0.79959998"
       scale_y_rel="false"
       vertical="false"
       hide_knot="false" />
    <inkscape:path-effect
       effect="bend_path"
       id="path-effect63"
       is_visible="true"
       lpeversion="1"
       bendpath="m 69.041139,260.61475 55.979301,-2.48797"
       prop_scale="0.79959998"
       scale_y_rel="false"
       vertical="false"
       hide_knot="false" />
    <inkscape:path-effect
       effect="bend_path"
       id="path-effect61"
       is_visible="true"
       lpeversion="1"
       bendpath="m 69.041139,260.61475 55.979301,-2.48797"
       prop_scale="0.79959998"
       scale_y_rel="false"
       vertical="false"
       hide_knot="false" />
    <inkscape:path-effect
       effect="bend_path"
       id="path-effect54"
       is_visible="true"
       lpeversion="1"
       bendpath="m 140.74078,262.1297 108.19447,-0.87963"
       prop_scale="0.12653477"
       scale_y_rel="false"
       vertical="false"
       hide_knot="false" />
    <inkscape:path-effect
       effect="bend_path"
       id="path-effect52"
       is_visible="true"
       lpeversion="1"
       bendpath="m 140.74078,262.1297 108.19447,-0.87963"
       prop_scale="0.12653477"
       scale_y_rel="false"
       vertical="false"
       hide_knot="false" />
    <inkscape:path-effect
       effect="bend_path"
       id="path-effect51"
       is_visible="true"
       lpeversion="1"
       bendpath="m 139.86115,262.1297 108.19447,-0.87963"
       prop_scale="0.12653477"
       scale_y_rel="false"
       vertical="false"
       hide_knot="false" />
    <inkscape:path-effect
       effect="bend_path"
       id="path-effect49"
       is_visible="true"
       lpeversion="1"
       bendpath="m 139.86115,262.1297 108.19447,-0.87963"
       prop_scale="0.12653477"
       scale_y_rel="false"
       vertical="false"
       hide_knot="false" />
    <inkscape:path-effect
       effect="bend_path"
       id="path-effect48"
       is_visible="true"
       lpeversion="1"
       bendpath="m 302.59267,274.44452 14.07408,7.03704"
       prop_scale="0.12653477"
       scale_y_rel="false"
       vertical="false"
       hide_knot="false" />
    <inkscape:path-effect
       effect="bend_path"
       id="path-effect46"
       is_visible="true"
       lpeversion="1"
       bendpath="m 302.59267,274.44452 14.07408,7.03704"
       prop_scale="0.12653477"
       scale_y_rel="false"
       vertical="false"
       hide_knot="false" />
    <inkscape:path-effect
       effect="bend_path"
       id="path-effect45"
       is_visible="true"
       lpeversion="1"
       bendpath="m 159.21301,272.68526 19.35185,7.03704"
       prop_scale="0.12653477"
       scale_y_rel="false"
       vertical="false"
       hide_knot="false" />
    <inkscape:path-effect
       effect="bend_path"
       id="path-effect43"
       is_visible="true"
       lpeversion="1"
       bendpath="m 159.21301,272.68526 19.35185,7.03704"
       prop_scale="0.12653477"
       scale_y_rel="false"
       vertical="false"
       hide_knot="false" />
    <inkscape:path-effect
       effect="bend_path"
       id="path-effect42"
       is_visible="true"
       lpeversion="1"
       bendpath="M 109.95373,297.31489 H 80.925948"
       prop_scale="0.12653477"
       scale_y_rel="false"
       vertical="false"
       hide_knot="false" />
    <inkscape:path-effect
       effect="bend_path"
       id="path-effect40"
       is_visible="true"
       lpeversion="1"
       bendpath="M 109.95373,297.31489 H 80.925948"
       prop_scale="0.12653477"
       scale_y_rel="false"
       vertical="false"
       hide_knot="false" />
    <inkscape:path-effect
       effect="bend_path"
       id="path-effect39"
       is_visible="true"
       lpeversion="1"
       bendpath="m 306.11119,297.31489 h 33.42594"
       prop_scale="0.12653477"
       scale_y_rel="false"
       vertical="false"
       hide_knot="false" />
    <inkscape:path-effect
       effect="bend_path"
       id="path-effect37"
       is_visible="true"
       lpeversion="1"
       bendpath="m 306.11119,297.31489 h 33.42594"
       prop_scale="0.12653477"
       scale_y_rel="false"
       vertical="false"
       hide_knot="false" />
    <inkscape:path-effect
       effect="bend_path"
       id="path-effect36"
       is_visible="true"
       lpeversion="1"
       bendpath="m 167.12967,297.31489 h 81.80558"
       prop_scale="0.12653477"
       scale_y_rel="false"
       vertical="false"
       hide_knot="false" />
    <inkscape:path-effect
       effect="bend_path"
       id="path-effect34"
       is_visible="true"
       lpeversion="1"
       bendpath="m 167.12967,297.31489 h 81.80558"
       prop_scale="0.12653477"
       scale_y_rel="false"
       vertical="false"
       hide_knot="false" />
  </defs>
  <sodipodi:namedview
     id="namedview1"
     pagecolor="#ffffff"
     bordercolor="#000000"
     borderopacity="0.25"
     inkscape:showpageshadow="2"
     inkscape:pageopacity="0.0"
     inkscape:pagecheckerboard="true"
     inkscape:deskcolor="#d1d1d1"
     inkscape:zoom="1.1368418"
     inkscape:cx="128.42596"
     inkscape:cy="98.95836"
     inkscape:window-width="1920"
     inkscape:window-height="991"
     inkscape:window-x="-9"
     inkscape:window-y="-9"
     inkscape:window-maximized="1"
     inkscape:current-layer="g1"
     showguides="false" />
  <g
     inkscape:groupmode="layer"
     inkscape:label="Image"
     id="g1">
    <path
       style="fill:#000000"
       d="M 200.2815,3.7319533 28.611642,95.786802"
       id="path5" />
    <path
       style="fill:none;stroke:#000000;stroke-width:3.2158;stroke-dasharray:none;stroke-opacity:1"
       d="M 202.40412,7.0453477 28.284228,88.848006 26.507494,248.93493 C 45.910904,358.78717 115.54728,424.04748 203.29249,473.23254 300.32655,432.80447 379.59603,376.5461 382.74261,252.45332 L 380.0775,86.209211 v 0 z"
       id="path6"
       sodipodi:nodetypes="cccccccc" />
    <path
       style="fill:none;stroke:#000000;stroke-width:6.39848;stroke-dasharray:none;stroke-opacity:1"
       d="M 203.70348,40.949128 56.438441,111.7652 54.935738,250.3515 C 71.346518,345.44996 130.24274,401.94542 204.45482,444.52463 286.52315,409.52629 353.56673,360.82376 356.228,253.39737 l -2.25407,-143.91655 v 0 z"
       id="path6-8"
       sodipodi:nodetypes="cccccccc" />
    <ellipse
       style="fill:none;stroke:#000000;stroke-width:5.28415;stroke-dasharray:none;stroke-opacity:1"
       id="path7"
       cx="200.95375"
       cy="199.87505"
       rx="8.0127029"
       ry="8.4525175" />
    <rect
       style="fill:none;stroke:#000000;stroke-width:2.241;stroke-dasharray:none;stroke-opacity:1"
       id="rect7"
       width="0.87962985"
       height="97.638908"
       x="200.67923"
       y="82.685204" />
    <path
       style="fill:none;stroke:#000000;stroke-width:2.2;stroke-dasharray:none;stroke-opacity:1"
       d="M 88.741493,145.18481 C 104.01419,107.66391 157.49802,89.247432 188.7256,89.077678"
       id="path2-1-0"
       inkscape:transform-center-x="-6.343403"
       inkscape:transform-center-y="75.622666"
       sodipodi:nodetypes="cc" />
    <path
       style="fill:none;stroke:#000000;stroke-width:2.2;stroke-dasharray:none;stroke-opacity:1"
       d="M 312.56011,144.89612 C 297.28741,107.37522 243.80358,88.958742 212.576,88.788988"
       id="path2-1-0-6"
       inkscape:transform-center-x="6.3434051"
       inkscape:transform-center-y="75.622666"
       sodipodi:nodetypes="cc" />
    <path
       style="fill:none;stroke:#000000;stroke-width:2.2;stroke-dasharray:none;stroke-opacity:1"
       d="m 115.13789,170.2556 c 13.27536,-20.98268 35.39142,-41.12279 73.94299,-41.46003"
       id="path12"
       sodipodi:nodetypes="cc" />
    <path
       style="fill:none;stroke:#000000;stroke-width:2.2;stroke-dasharray:none;stroke-opacity:1"
       d="M 286.9509,170.36403 C 273.67554,149.38135 251.55948,129.24124 213.00791,128.904"
       id="path12-1"
       sodipodi:nodetypes="cc" />
    <path
       style="fill:none;stroke:#000000;stroke-width:2.2;stroke-dasharray:none;stroke-opacity:1"
       d="m 145.48525,186.78314 c 8.25696,-11.77581 19.86005,-20.81136 43.44907,-20.03126"
       id="path18-3"
       sodipodi:nodetypes="cc" />
    <path
       style="fill:none;stroke:#000000;stroke-width:2.6;stroke-dasharray:none;stroke-opacity:1"
       d="m 247.652,299.15921 c 24.44722,-21.62443 42.55975,-13.19555 58.64255,-0.67397"
       id="path30-0"
       sodipodi:nodetypes="cc" />
    <path
       style="fill:none;stroke:#000000;stroke-width:2.6;stroke-dasharray:none;stroke-opacity:1"
       d="m 166.98876,298.50984 c 37.64432,-3.95038 60.41485,-2.29104 81.80558,-0.1113"
       id="path35"
       sodipodi:nodetypes="cc"
       inkscape:path-effect="#path-effect36"
       inkscape:original-d="m 109.0741,298.19452 c 26.71532,-31.21977 42.87505,-18.10603 58.05557,-0.87963" />
    <path
       style="fill:none;stroke:#000000;stroke-width:2.6;stroke-dasharray:none;stroke-opacity:1"
       d="m 306.05361,298.50984 c 15.38155,-3.95038 24.68564,-2.29104 33.42594,-0.1113"
       id="path38"
       sodipodi:nodetypes="cc"
       inkscape:path-effect="#path-effect39"
       inkscape:original-d="m 109.0741,298.19452 c 26.71532,-31.21977 42.87505,-18.10603 58.05557,-0.87963"
       transform="translate(-0.90046267,-0.31099612)" />
    <path
       style="fill:none;stroke:#000000;stroke-width:2.5;stroke-dasharray:none;stroke-opacity:1"
       d="m 158.77131,273.79615 c 10.25512,-0.47433 15.07463,3.04387 19.38989,6.93244"
       id="path44"
       sodipodi:nodetypes="cc"
       inkscape:path-effect="#path-effect45"
       inkscape:original-d="m 109.0741,298.19452 c 26.71532,-31.21977 42.87505,-18.10603 58.05557,-0.87963"
       transform="rotate(180,168.76384,277.11877)" />
    <path
       style="fill:none;stroke:#000000;stroke-width:2.5;stroke-dasharray:none;stroke-opacity:1"
       d="m 302.03403,275.5012 c 8.24311,-0.29511 11.41854,3.1478 14.12385,6.93749"
       id="path47"
       sodipodi:nodetypes="cc"
       inkscape:path-effect="#path-effect48"
       inkscape:original-d="m 109.0741,298.19452 c 26.71532,-31.21977 42.87505,-18.10603 58.05557,-0.87963" />
    <path
       style="fill:none;stroke:#000000;stroke-width:1.91;stroke-dasharray:none;stroke-opacity:1"
       d="m 139.6845,263.32613 c 49.75553,-4.35503 79.88488,-2.94059 108.19357,-0.99093"
       id="path50"
       sodipodi:nodetypes="cc"
       inkscape:path-effect="#path-effect51"
       inkscape:original-d="m 109.0741,298.19452 c 26.71532,-31.21977 42.87505,-18.10603 58.05557,-0.87963" />
    <path
       style="fill:none;stroke:#000000;stroke-width:1.91;stroke-dasharray:none;stroke-opacity:1"
       d="m 139.6845,263.32613 c 49.75553,-4.35503 79.88488,-2.94059 108.19357,-0.99093"
       id="path49"
       sodipodi:nodetypes="cc"
       inkscape:path-effect="#path-effect49"
       inkscape:original-d="m 109.0741,298.19452 c 26.71532,-31.21977 42.87505,-18.10603 58.05557,-0.87963" />
    <path
       style="fill:none;stroke:#000000;stroke-width:2.6;stroke-dasharray:none;stroke-opacity:1"
       d="m 140.56413,263.32613 c 49.75553,-4.35503 79.88488,-2.94059 108.19357,-0.99093"
       id="path53"
       sodipodi:nodetypes="cc"
       inkscape:path-effect="#path-effect54"
       inkscape:original-d="m 109.0741,298.19452 c 26.71532,-31.21977 42.87505,-18.10603 58.05557,-0.87963"
       transform="translate(-1.0996391,-1.8752205e-4)" />
    <path
       style="fill:none;stroke:#000000;stroke-width:1.5;stroke-dasharray:none;stroke-opacity:1"
       d="m 173.50699,241.45839 11.21528,19.79168"
       id="path54"
       sodipodi:nodetypes="cc" />
    <path
       style="fill:none;stroke:#000000;stroke-width:2.6;stroke-dasharray:none;stroke-opacity:1"
       d="m 109.36083,298.87333 c 26.85624,-20.98091 43.1012,-12.16797 58.3618,-0.59115"
       id="path30-8"
       sodipodi:nodetypes="cc" />
    <path
       style="fill:none;stroke:#000000;stroke-width:2.6;stroke-dasharray:none;stroke-opacity:1"
       d="M 140.59604,263.06204 C 185.61253,221.19873 218.28982,236.496 247.32073,262.2969"
       id="path57"
       sodipodi:nodetypes="cc" />
    <path
       style="fill:none;stroke:#000000;stroke-width:2.2;stroke-dasharray:none;stroke-opacity:1"
       d="m 145.48525,186.78314 c 8.25696,-11.77581 19.86005,-20.81136 43.44907,-20.03126"
       id="path18-3-1"
       sodipodi:nodetypes="cc" />
    <path
       style="fill:none;stroke:#000000;stroke-width:2.2;stroke-dasharray:none;stroke-opacity:1"
       d="m 145.48525,186.78314 c 8.25696,-11.77581 19.86005,-20.81136 43.44907,-20.03126"
       id="path58"
       sodipodi:nodetypes="cc" />
    <path
       style="fill:none;stroke:#000000;stroke-width:2.6;stroke-dasharray:none;stroke-opacity:1"
       d="m 69.216098,267.45593 c 10.281823,-8.49075 24.957687,-15.30731 55.373122,-16.1269"
       id="path61"
       sodipodi:nodetypes="cc"
       inkscape:original-d="m 145.48525,186.78314 c 8.25696,-11.77581 19.86005,-20.81136 43.44907,-20.03126"
       inkscape:path-effect="#path-effect61"
       transform="rotate(180,96.533671,259.24084)" />
    <path
       style="fill:none;stroke:#000000;stroke-width:2.2;stroke-dasharray:none;stroke-opacity:1"
       d="m 145.48525,186.78314 c 8.25696,-11.77581 19.86005,-20.81136 43.44907,-20.03126"
       id="path18-3-40"
       sodipodi:nodetypes="cc" />
    <path
       style="fill:none;stroke:#000000;stroke-width:2.2;stroke-dasharray:none;stroke-opacity:1"
       d="m 145.48525,186.78314 c 8.25696,-11.77581 19.86005,-20.81136 43.44907,-20.03126"
       id="path18-3-8"
       sodipodi:nodetypes="cc" />
    <path
       style="fill:none;stroke:#000000;stroke-width:2.2;stroke-dasharray:none;stroke-opacity:1"
       d="m 145.48525,186.78314 c 8.25696,-11.77581 19.86005,-20.81136 43.44907,-20.03126"
       id="path18-3-9"
       sodipodi:nodetypes="cc" />
    <path
       style="fill:none;stroke:#000000;stroke-width:2.6;stroke-linejoin:round;stroke-dasharray:none;stroke-opacity:1"
       d="m 121.77385,252.69215 c 11.44162,-9.18214 35.81126,-24.03355 44.87452,-26.01047"
       id="path69"
       sodipodi:nodetypes="cc" />
    <path
       style="fill:none;stroke:#000000;stroke-width:2.2;stroke-dasharray:none;stroke-opacity:1"
       d="m 145.48525,186.78314 c 8.25696,-11.77581 19.86005,-20.81136 43.44907,-20.03126"
       id="path18-3-7"
       sodipodi:nodetypes="cc" />
    <path
       style="fill:none;stroke:#000000;stroke-width:2.2;stroke-dasharray:none;stroke-opacity:1"
       d="m 256.88358,186.49677 c -8.25696,-11.77581 -19.86005,-20.81136 -43.44907,-20.03126"
       id="path18-3-7-8"
       sodipodi:nodetypes="cc" />
    <path
       style="fill:none;stroke:#000000;stroke-width:2.6;stroke-linejoin:round;stroke-dasharray:none;stroke-opacity:1"
       d="m 163.81301,227.4663 c 12.78053,-3.5224 34.55735,-7.15789 49.93312,-4.18244"
       id="path72"
       sodipodi:nodetypes="cc" />
    <path
       style="fill:none;stroke:#000000;stroke-width:2.6;stroke-linejoin:round;stroke-dasharray:none;stroke-opacity:1"
       d="m 213.35337,223.20244 c 11.73815,1.61894 27.32592,13.28638 32.68145,19.07534"
       id="path75"
       sodipodi:nodetypes="cc" />
    <path
       style="fill:none;stroke:#000000;stroke-width:2.6;stroke-linejoin:round;stroke-dasharray:none;stroke-opacity:1"
       d="m 245.73733,242.01617 c 2.71916,2.73012 13.76032,12.78821 17.92945,19.29737"
       id="path78"
       sodipodi:nodetypes="cc" />
    <path
       style="fill:none;stroke:#000000;stroke-width:2.6;stroke-linejoin:round;stroke-dasharray:none;stroke-opacity:1"
       d="m 262.67206,260.68049 c 7.05217,-0.59293 49.19193,-2.12041 61.48157,5.90436"
       id="path84"
       sodipodi:nodetypes="cc" />
    <path
       style="fill:none;stroke:#000000;stroke-width:2.6;stroke-linejoin:round;stroke-dasharray:none;stroke-opacity:1"
       d="m 323.73268,266.27387 c 6.35067,4.19515 20.32587,12.51304 13.85361,31.81591"
       id="path87"
       sodipodi:nodetypes="cc" />
    <path
       style="fill:none;stroke:#000000;stroke-width:2.6;stroke-linejoin:round;stroke-dasharray:none;stroke-opacity:1"
       d="m 110.17364,298.41444 c -9.72274,3.95613 -21.662352,4.35747 -29.4676,0.21989"
       id="path90"
       sodipodi:nodetypes="cc" />
    <path
       style="fill:#ffffff;stroke:#000000;stroke-width:2.28704;stroke-linejoin:round"
       d="M 188.24079,461.95162 C 100.12082,408.28611 53.206023,349.53191 32.272214,266.62288 l -3.244428,-12.84966 0.192845,-44.86113 c 0.106064,-24.67361 0.447879,-61.49036 0.759587,-81.81498 L 30.54696,90.143256 112.9124,51.498369 C 158.21339,30.243682 196.90943,12.084286 198.9036,11.144156 L 202.52938,9.4348284 289.94529,48.3558 c 48.07876,21.406535 87.56406,39.058579 87.74512,39.226764 0.69926,0.649542 2.8461,146.152706 2.43909,165.311026 -0.44543,20.96774 -1.55998,30.8489 -5.46469,48.44833 -11.67345,52.61482 -42.9628,95.80784 -93.62307,129.24083 -12.26535,8.09445 -26.70521,16.42117 -40.20815,23.18593 -11.86799,5.94566 -36.19974,16.84377 -37.49466,16.79371 -0.56323,-0.0218 -7.3574,-3.89662 -15.09814,-8.61077 z m 27.26853,-18.24647 c 20.30446,-8.87118 44.31739,-22.01752 59.81483,-32.74675 18.18909,-12.59273 37.63012,-30.96959 49.03593,-46.35182 14.79554,-19.95367 25.64127,-44.59006 30.97933,-70.37039 3.31565,-16.01303 4.17716,-27.0127 4.09922,-52.33798 -0.0752,-24.44518 -1.83351,-134.91683 -2.14996,-135.0809 -0.0874,-0.0453 -34.68224,-15.808733 -76.87736,-35.029784 l -76.71842,-34.947368 -75.01773,36.059291 -75.017738,36.059291 -0.549242,3.3563 c -0.302082,1.84595 -0.822344,34.03338 -1.156136,71.5276 -0.601223,67.53402 -0.589266,68.25354 1.278975,76.96762 16.410377,76.54317 60.282261,133.49027 139.407921,180.95591 6.28935,3.77284 11.83102,6.70373 12.31482,6.51309 0.4838,-0.19064 5.2338,-2.24899 10.55556,-4.57411 z"
       id="path1" />
    <path
       style="fill:#ffffff;stroke:#000000;stroke-width:2.28704;stroke-linejoin:round"
       d="M 198.79635,436.97919 C 187.13071,429.78238 168.13565,416.98493 160.20796,410.98123 106.05403,369.97 73.453574,320.63261 60.748966,260.4604 l -2.288047,-10.83677 0.836942,-67.72256 c 0.460318,-37.24741 0.962865,-67.81206 1.116771,-67.92146 1.660034,-1.17994 142.754798,-68.52266 143.511768,-68.496325 0.85208,0.02964 145.60355,65.813575 146.25904,66.469065 0.11633,0.11633 0.70878,33.1031 1.31657,73.30395 1.20025,79.38785 1.01629,85.45714 -3.23217,106.63774 -12.49754,62.30623 -53.81717,107.58928 -129.81042,142.26197 -6.82156,3.11241 -13.0468,5.63138 -13.83388,5.59772 -0.78707,-0.0337 -3.41021,-1.2822 -5.82919,-2.77454 z M 103.49371,302.20083 c 4.02044,-0.85213 7.4944,-2.3601 11.08802,-4.81309 18.05166,-12.32196 30.06582,-12.40419 48.25045,-0.33028 l 4.63583,3.07802 14.23433,-1.0929 c 15.39029,-1.18166 56.25017,-0.66546 63.23435,0.79885 3.6903,0.77371 4.11143,0.65599 7.24324,-2.02472 6.96433,-5.96121 17.2645,-10.14507 25.03072,-10.1673 5.84793,-0.0168 14.67852,3.21353 21.79308,7.97204 6.24477,4.17675 6.78555,4.37031 9.93458,3.55558 8.36299,-2.16372 18.27347,-2.04741 27.6208,0.32414 2.82946,0.71788 3.35414,-0.37652 4.03682,-8.42016 0.86566,-10.19964 -2.92904,-17.37046 -12.67215,-23.94644 -9.53389,-6.43477 -21.14363,-8.48063 -48.28153,-8.50815 l -15.03376,-0.0152 -10.91532,-11.07927 c -15.08035,-15.30685 -25.34799,-22.27421 -37.48295,-25.43497 -9.85905,-2.56795 -33.51783,-1.2587 -48.88427,2.70521 -9.55207,2.46404 -24.75337,10.79673 -42.41851,23.25199 -12.20877,8.60811 -17.1836,11.09955 -27.274446,13.6593 -6.214599,1.57647 -23.284111,3.90663 -28.801957,3.93177 -0.362847,0.002 -0.659722,0.8057 -0.659722,1.78677 0,1.66536 0.394083,1.75041 5.937501,1.28139 17.800594,-1.50609 29.553504,-4.06109 38.032694,-8.26806 2.94923,-1.46326 10.39265,-6.18449 16.54094,-10.4916 29.48527,-20.65562 41.62011,-25.006 70.1139,-25.13603 14.36147,-0.0655 16.26947,0.10647 20.5249,1.85034 10.60266,4.34493 17.07181,9.09872 30.31752,22.2785 l 13.01834,12.95353 21.28723,0.50248 c 28.59609,0.67499 34.06504,1.84303 44.27413,9.45593 5.71023,4.2581 9.1255,10.65378 9.10612,17.05275 -0.0201,6.63004 -0.29917,6.82792 -8.09947,5.74301 -5.60107,-0.77904 -17.42165,-0.19349 -22.57253,1.11816 -0.29777,0.0758 -3.05659,-1.51224 -6.13072,-3.52904 -16.77825,-11.00747 -32.40066,-10.6025 -48.68068,1.26192 l -4.13111,3.01064 -10.38278,-0.91087 c -13.59822,-1.19296 -42.78429,-1.17776 -57.21097,0.0298 l -11.45507,0.95882 -5.20267,-3.55131 c -17.08992,-11.66548 -31.69375,-11.24819 -51.25836,1.46464 -8.7076,5.65808 -17.904951,6.65583 -29.613624,3.21254 -2.570889,-0.75606 -3.529293,1.87845 -1.147151,3.15334 4.762374,2.54874 13.743162,3.08951 22.054255,1.32797 z M 316.5787,282.71307 c 3.69605,-1.4183 -4.39103,-7.77444 -11.12723,-8.74557 -3.85664,-0.556 -4.17824,-0.45927 -4.17824,1.25677 0,1.40295 0.54653,1.85914 2.22733,1.85914 3.05029,0 7.54384,2.00937 9.5641,4.27674 1.90193,2.13458 1.68985,2.05293 3.51404,1.35292 z m -137.57402,-2.11114 c 0,-1.41168 -0.58643,-1.75926 -2.96811,-1.75926 -3.94985,0 -9.57603,-2.05335 -13.20005,-4.81752 -2.61185,-1.99215 -3.07305,-2.09329 -4.06966,-0.89244 -0.6182,0.74488 -0.96863,1.47472 -0.77874,1.62185 6.89643,5.3439 11.88396,7.41697 18.15776,7.54726 2.29217,0.0476 2.8588,-0.28933 2.8588,-1.69989 z m -6.59723,-17.6971 c 17.60027,-0.95148 51.01292,-0.62324 68.39123,0.67184 7.30903,0.54471 7.69676,0.4847 7.69676,-1.19124 0,-3.1839 -16.48763,-15.3407 -28.46715,-20.98965 -8.97598,-4.23263 -15.4181,-5.65498 -25.61267,-5.65498 -16.8347,0 -30.43351,5.71658 -48.83688,20.52973 -3.62847,2.92061 -6.7055,5.37706 -6.83783,5.45879 -0.13234,0.0817 0.0296,0.8528 0.3599,1.71351 0.53263,1.38801 1.40508,1.5025 7.71747,1.01277 3.91432,-0.30369 15.42945,-1.00154 25.58917,-1.55077 z m 33.78096,-52.90617 c 7.67934,-3.94656 7.39878,-16.70005 -0.44931,-20.42421 -5.87217,-2.78653 -11.94816,-0.52841 -14.57857,5.41805 -2.21888,5.01615 -1.41795,9.42879 2.40677,13.25987 2.35277,2.35669 3.5261,2.85652 6.68044,2.84583 2.10451,-0.007 4.77781,-0.50192 5.94067,-1.09954 z M 163.53748,172.937 c 5.37181,-2.56636 15.73293,-4.84322 22.28433,-4.89701 2.87103,-0.0236 3.73843,-0.3665 3.73843,-1.47804 0,-1.2789 -0.99821,-1.38867 -8.5764,-0.94315 -14.25562,0.83806 -22.78237,4.67308 -31.78304,14.29482 -4.3342,4.63327 -5.25888,6.09537 -4.46211,7.0554 0.81645,0.98378 2.18617,0.0142 7.29986,-5.16738 4.10828,-4.16283 8.10251,-7.24201 11.49893,-8.86464 z m 94.36975,13.01748 c 0.47074,-1.41222 -8.16098,-10.48655 -12.81719,-13.47444 -5.93757,-3.81012 -12.74336,-6.05783 -21.21078,-7.00517 -7.83086,-0.87611 -10.56902,-0.53476 -10.56902,1.31758 0,0.89714 1.3497,1.21685 5.13708,1.21685 6.58114,0 17.75642,2.85596 22.93528,5.86134 2.21877,1.28759 6.40913,4.84029 9.31191,7.89486 4.99629,5.25757 6.55481,6.16272 7.21272,4.18898 z m -55.15255,-54.44982 c 0,-49.992292 -0.0204,-50.578712 -1.75926,-50.578712 -1.73886,0 -1.75926,0.58642 -1.75926,50.578712 0,49.9923 0.0204,50.57872 1.75926,50.57872 1.73887,0 1.75926,-0.58642 1.75926,-50.57872 z m -80.58229,31.89697 c 14.57639,-19.43712 35.04968,-30.59464 60.1309,-32.77008 5.69037,-0.49356 7.25695,-0.92314 7.25695,-1.99 0,-1.1699 -1.1402,-1.2822 -8.13658,-0.80139 -14.83236,1.01932 -28.34742,5.41158 -40.42566,13.13793 -8.71271,5.57346 -22.22979,19.48366 -26.16226,26.92317 -0.90101,1.70454 -0.88665,2.22618 0.0777,2.82217 0.65066,0.40213 1.40157,0.45075 1.66871,0.10804 0.26714,-0.3427 2.78275,-3.68613 5.59025,-7.42984 z m 165.5846,6.81639 c 0.70855,-1.84646 -7.19679,-12.20852 -14.85445,-19.47074 -10.14617,-9.62222 -19.29979,-15.09017 -31.92023,-19.06771 -11.89752,-3.7497 -28.5517,-5.43182 -28.5517,-2.88381 0,0.90113 1.65518,1.40455 5.9375,1.80588 27.40895,2.5687 47.13905,13.2816 62.27659,33.81449 2.87925,3.90548 5.5443,7.10331 5.92233,7.10628 0.37804,0.003 0.91351,-0.584 1.18996,-1.30439 z M 93.379665,139.64124 c 4.599646,-8.85261 17.993905,-22.15159 29.184015,-28.97643 16.46836,-10.04403 37.86904,-17.306902 57.10072,-19.378586 7.45915,-0.803517 9.89584,-1.373421 9.89584,-2.314477 0,-1.021766 -1.4775,-1.16398 -8.13658,-0.783171 -27.12176,1.550995 -60.21543,15.592364 -77.92769,33.064064 -10.686194,10.54106 -18.847789,24.76592 -14.20959,24.76592 0.428864,0 2.270842,-2.86979 4.093285,-6.37732 z m 219.825385,3.2118 C 311.08249,134.39611 296.44812,118.02248 283.45867,109.57138 265.197,97.690095 241.21088,89.439177 219.24774,87.483643 c -6.54789,-0.583006 -6.81713,-0.533416 -6.81713,1.255627 0,1.639635 0.50794,1.862606 4.24314,1.862606 2.33374,0 7.97437,0.63817 12.53473,1.418154 35.75004,6.114523 67.36982,25.3955 79.26179,48.33193 1.879,3.62407 3.24523,5.31731 4.04329,5.01106 0.77075,-0.29576 1.02007,-1.20077 0.69149,-2.50998 z"
       id="path2" />
    <path
       style="fill:#ffffff;stroke:#000000;stroke-width:0.404295;stroke-linejoin:round"
       d="m 145.06931,260.90499 c 6.70665,-5.93621 14.68512,-11.53143 21.54686,-15.11061 2.54691,-1.3285 6.52304,-3.12162 6.64704,-2.99762 0.13863,0.13863 9.37126,16.4688 9.33012,16.50259 -0.0212,0.0174 -2.13783,0.1129 -4.70355,0.21213 -10.73639,0.41522 -29.17749,1.52592 -32.81009,1.97614 l -0.77749,0.0964 z"
       id="path3" />
    <path
       style="fill:#ffffff;stroke:#000000;stroke-width:0.404295;stroke-linejoin:round"
       d="m 241.09974,260.51859 c -1.52996,-0.19508 -16.32766,-0.91767 -23.6357,-1.15416 -5.50292,-0.17807 -21.20647,-0.27125 -28.68939,-0.17023 l -4.19845,0.0567 -4.84693,-8.53133 c -2.6658,-4.69222 -4.80001,-8.57696 -4.74269,-8.63273 0.17909,-0.17425 4.36888,-1.50011 6.32416,-2.00129 4.487,-1.15011 8.32647,-1.61825 13.21733,-1.61155 5.00453,0.007 7.96892,0.367 12.68879,1.54156 10.28989,2.56067 20.64686,8.16735 32.1724,17.41633 1.41115,1.13241 2.84562,2.30891 3.18772,2.61443 l 0.62199,0.5555 -0.85524,-0.0168 c -0.47038,-0.009 -1.03018,-0.0391 -1.24399,-0.0664 z"
       id="path4" />
    <path
       style="fill:#ffffff;stroke:#000000;stroke-width:0.404295;stroke-linejoin:round"
       d="m 199.16223,205.2509 c -1.16347,-0.46085 -2.27017,-1.52158 -2.88005,-2.76042 -0.47362,-0.96207 -0.51012,-1.14769 -0.51012,-2.59445 0,-1.36521 0.0516,-1.6684 0.41674,-2.4474 0.58617,-1.25063 1.64157,-2.32345 2.79491,-2.84104 0.84984,-0.38138 1.08748,-0.41982 2.21341,-0.35798 1.41545,0.0777 2.19725,0.39719 3.20898,1.31122 0.77946,0.7042 1.65138,2.43647 1.79171,3.55967 0.30109,2.40986 -1.01186,4.91739 -3.12604,5.97022 -1.06663,0.53117 -2.79424,0.60195 -3.90954,0.16018 z"
       id="path8" />
  </g>
</svg>
